<?xml version="1.0" encoding="utf-8"?>
<!-- Generator: Adobe Illustrator 16.0.0, SVG Export Plug-In . SVG Version: 6.00 Build 0)  -->
<!DOCTYPE svg PUBLIC "-//W3C//DTD SVG 1.1//EN" "http://www.w3.org/Graphics/SVG/1.1/DTD/svg11.dtd">
<svg version="1.1" id="Layer_1" xmlns="http://www.w3.org/2000/svg" xmlns:xlink="http://www.w3.org/1999/xlink" x="0px" y="0px"
	 width="640px" height="542px" viewBox="0 0 640 542" enable-background="new 0 0 640 542" xml:space="preserve">
<path fill-rule="evenodd" clip-rule="evenodd" fill="#323232" d="M634,542c-11.162-4.651-22.272-9.43-33.501-13.912
	c-8.802-3.514-15.843-8.801-20.458-17.296c-4.676-8.605-9.946-16.889-14.605-25.503c-14.07-26.016-36.905-41.127-64.014-49.983
	c-12.166-3.975-25.3-5.006-38.009-7.29c-12.392-2.228-24.863-4.05-37.185-6.605c-11.754-2.438-21.186-9.256-29.718-17.435
	c-3.002-2.878-6.113-5.651-9.282-8.345c-7.121-6.052-15.277-8.729-24.742-8.857c-25.804-0.35-50.822,4.81-75.968,9.554
	c-25.896,4.885-51.813,9.971-77.938,13.226c-18.598,2.316-37.604,2.934-56.338,2.146c-20.682-0.868-41.255-4.262-61.89-6.414
	c-3.598-0.375-7.269-0.054-11.449-0.054c0.699,1.572,1.16,2.935,1.868,4.154c7.915,13.636,15.904,27.229,23.789,40.883
	c2.732,4.731,6.744,7.594,11.847,9.296c4.706,1.569,9.49,3.074,13.927,5.246c8.054,3.942,7.765,10.484,4.608,16.79
	c-0.608,1.214-3.387,2.217-4.929,1.951c-16.364-2.82-31.837-8.484-45.51-17.792c-4.359-2.968-6.923-9.089-9.362-14.217
	c-2.613-5.495-4.036-11.547-6.111-17.309c-3.128-8.687-8.904-14.979-17.145-19.226c-4.696-2.419-9.542-4.888-13.535-8.263
	c-10.476-8.854-9.902-19.675,1.021-27.972c9.283-7.051,20.397-9.165,31.373-11.859c12.417-3.048,24.835-0.841,37.255-0.931
	c3.289-0.024,6.634-0.349,9.844-1.039c4.193-0.903,5.538-4.3,3.72-7.646c-6.601-12.145-5.488-25.474-6.534-38.463
	c-1.625-20.188-1.796-40.582-7.156-60.271c-2.335-8.579-5.782-16.896-9.231-25.12c-3.008-7.172-6.764-14.028-10.125-21.056
	c-4.039-8.445-9.619-11.472-18.907-10.142c-7.229,1.036-14.438,2.237-21.69,3.066c-9.416,1.077-17.99,0.595-23.803-9.107
	c-2.417-4.033-7.503-6.44-11.274-9.704c-1.557-1.347-2.848-3-4.802-5.095c3.359-1.724,5.994-3.005,8.562-4.408
	c9.019-4.926,18.222-9.562,26.932-14.987c4.278-2.664,8.045-6.471,11.313-10.373c7.742-9.246,17.914-14.703,28.583-19.517
	c5.732-2.586,11.53-5.024,15.747-6.856c1.805-5.661,2.565-10.436,4.76-14.419c4.207-7.634,3.15-14.43-0.977-21.6
	c-7.139-12.403-17.375-18.572-31.908-19.474c-18.188-1.127-36.427-3.014-53.896-8.848C10.082,58.563,2.945,55.984,0,48
	c0-4.333,0-8.667,0-13c3.973-2.933,5.538,1.043,6.993,2.999c6.667,8.961,16.667,12.13,26.361,15.891
	c0.615,0.239,1.471-0.14,2.896-0.314c-2.338-4.739-4.467-9.007-6.553-13.294c-4.978-10.229-10.2-20.352-14.717-30.78
	C13.827,6.837,14.933,3.193,15,0c0.667,0,1.333,0,2,0c7.972,11.626,15.788,23.365,24.004,34.815
	c2.773,3.865,6.391,7.19,9.948,10.401c2.393,2.159,5.909,2.899,8.034,0.173c1.256-1.612,1.481-5.143,0.591-7.087
	c-2.057-4.489-5.622-8.307-7.532-12.837c-1.506-3.573-2.311-7.901-1.872-11.715c0.512-4.441,5.285-5.431,8.149-1.844
	c1.774,2.222,3.368,5.228,3.54,7.975c0.624,10.002,5.676,17.417,13.294,22.961c6.101,4.439,12.731,8.426,19.651,11.387
	c6.63,2.837,9.873-0.1,9.13-7.282c-0.441-4.267-2.06-8.442-2.226-12.694c-0.091-2.327,1.738-4.729,2.701-7.099
	c1.859,1.514,4.983,2.768,5.357,4.587c1.53,7.439,3.157,15.066,3.032,22.596c-0.301,18.083,1.24,35.841,6.21,53.243
	c0.735,2.573,2.029,4.986,3.043,7.421c3.429-5.875,6.392-11.333,9.779-16.513c0.954-1.459,3.152-2.104,4.78-3.124
	c1.091,1.766,3.2,3.59,3.1,5.285c-0.464,7.901-1.383,15.79-2.531,23.626c-0.22,1.505-2.026,2.962-3.396,4.08
	c-5.279,4.307-6.06,6.606-4.059,13.27c0.477,1.587,0.889,3.215,1.571,4.715c9.25,20.35,17.98,40.961,27.969,60.942
	c11.972,23.947,28.039,44.792,50.588,60.014c16.047,10.833,33.866,17.112,52.989,18.524c20.037,1.479,40.227,2.604,60.265,1.788
	c14.953-0.608,30.049-3.487,44.571-7.299c14.911-3.913,29.11-6.039,44.251-1.188c6.054,1.94,13.191,1.222,19.75,0.675
	c7.336-0.612,12.246-5.956,16.182-11.549c4.859-6.906,9.291-14.182,13.146-21.689c1.34-2.609,1.068-6.537,0.369-9.598
	c-1.279-5.607-3.424-11.019-5.275-16.717c-0.119,0.113,0.169-0.295,0.285-0.25c12.773,4.88,23.285,12.441,27.422,26.091
	c3.279,10.823-0.722,19.912-10.602,26.652c-5.209,3.555-10.852,6.539-15.76,10.456c-7.746,6.179-7.927,10.475-1.738,18.058
	c0.105,0.129,0.209,0.262,0.329,0.376c9.348,8.936,12.598,19.977,13.052,32.759c0.902,25.443,13.01,45.509,32.078,61.749
	c13.283,11.312,28.191,20.155,44.246,26.618c15.222,6.127,24.747,16.566,29.861,31.833c5.634,16.822,13.572,32.477,25.252,45.994
	c6.581,7.617,13.523,14.689,24.553,15.601c1.99,0.164,4.367,2.017,5.596,3.769c3.383,4.825,6.25,10.01,9.322,15.052
	c0,2.333,0,4.667,0,7C638,542,636,542,634,542z"/>
</svg>
