<?xml version="1.0" encoding="utf-8"?>
<!-- Generator: Adobe Illustrator 16.0.0, SVG Export Plug-In . SVG Version: 6.00 Build 0)  -->
<!DOCTYPE svg PUBLIC "-//W3C//DTD SVG 1.1//EN" "http://www.w3.org/Graphics/SVG/1.1/DTD/svg11.dtd">
<svg version="1.1" id="Layer_1" xmlns="http://www.w3.org/2000/svg" xmlns:xlink="http://www.w3.org/1999/xlink" x="0px" y="0px"
	 width="1076px" height="397.859px" viewBox="0 0 1076 397.859" enable-background="new 0 0 1076 397.859" xml:space="preserve">
<g>
	<g>
		<path fill-rule="evenodd" clip-rule="evenodd" fill="#323232" d="M1076,192.97c-5.061,5.391-9.093,5.689-16.255,1.309
			c-6.989-4.273-16.667-4.751-25.292-5.589c-9.018-0.876-18.188-0.195-26.812-0.195c2.259,1.821,7.624,4.149,7.63,6.49
			c0.03,11.739,8.249,17.484,15.884,23.264c14.075,10.655,21.032,25.921,27.545,41.271c4.873,11.488,0.706,18.853-10.842,23.312
			c-4.676,1.806-9.233,3.988-14.017,5.43c-11.851,3.571-23.825,6.122-35.521,1.747c0.327-5.487,0.194-10.744,1.111-15.813
			c0.54-2.99,2.042-7.112,4.331-8.234c6.699-3.282,14.01-5.313,20.262-7.542c-6.756-2.839-14.372-6.041-23.518-9.884
			c-1.734,9.948-5.084,19.751-4.77,29.433c0.566,17.48-9.959,29.537-18.357,42.47c-7.104,10.939-16.981,20.052-24.4,30.82
			c-10.161,14.749-5.248,35.364,9.52,46.164c-6.095-0.09-12.734-0.021-17.691-2.876c-8.153-4.696-15.493-10.965-22.645-17.183
			c-4.955-4.308-4.334-12.373,1.514-15.858c10.052-5.989,14.221-15.067,16.695-25.807c3.484-15.131,9.43-28.935,20.514-40.544
			c3.587-3.756,5.615-10.611,5.515-15.994c-0.358-18.974-1.796-37.934-3.221-56.869c-0.243-3.246-2.429-6.347-3.929-10.038
			c-2.544,2.041-3.91,4.024-5.558,4.293c-4.896,0.8-12.169,3.123-14.377,0.842c-4.253-4.389-0.157-10.16,4.189-13.342
			c10.19-7.464,12.112-18.278,13.079-29.56c1.516-17.696,4.754-34.765,15.24-49.74c11.407-16.291,22.877-32.555,33.58-49.305
			c2.157-3.377,1.617-8.935,1.17-13.371c-0.348-3.456-2.76-6.651-3.777-10.103c-5.902-20.004,2.518-31.045,23.333-30.441
			c4.132,0.12,8.25,1.208,12.346,2c8.136,1.573,11.614,6.426,11.015,14.806c-0.812,11.368-0.145,22.703-3.356,34.047
			c-1.748,6.175-3.182,10.046-9.866,9.363c-6.973-0.712-8.069,3.858-8.11,8.82c-0.023,2.94,0.751,6.344,2.345,8.764
			c8.846,13.437,5.573,27.997,3.965,42.22c-0.847,7.484-3.623,14.749-5.67,22.664c10.685,5.479,22.493,12.202,36.859,12.276
			c3.456,0.018,6.896,3.06,10.344,4.712C1076,185.124,1076,189.048,1076,192.97z M970.859,184.684
			c8.675-6.845,15.042-27.755,11.571-46.758C978.098,155.435,974.23,171.059,970.859,184.684z M1000.877,143.071
			c-3.393,14.834-2.117,27.971,3.605,40.726C1003.318,170.651,1002.154,157.505,1000.877,143.071z M1008.888,205.322
			c-0.826-0.087-1.653-0.174-2.479-0.261c-0.338,5.626-0.646,11.255-1.021,16.88c-0.364,5.459-0.794,10.913-1.364,18.66
			C1011.807,227.975,1007.708,216.357,1008.888,205.322z M1021.539,161.913c0.803,0.048,1.606,0.097,2.41,0.146
			c1.195-14.846,2.389-29.689,3.584-44.535c-0.66-0.044-1.32-0.089-1.981-0.133C1024.215,132.232,1022.877,147.073,1021.539,161.913
			z"/>
		<path fill-rule="evenodd" clip-rule="evenodd" fill="#323232" d="M0,290.483c3.598,2.447,6.965,3.83,9.45-1.458
			c0.55-1.171,1.568-2.6,2.677-2.956c8.6-2.76,17.144-6.052,25.98-7.598c5.349-0.934,11.19,0.949,18.638,1.768
			c-4.883-9.629-9.053-17.995-13.354-26.292c-2.805-5.411-7.137-5.37-10.896-1.669C21.466,263.131,10.805,274.358,0,285.439
			C0,287.12,0,288.802,0,290.483z"/>
		<path fill-rule="evenodd" clip-rule="evenodd" fill="#323232" d="M524.691,388.324c2.755,9.395,1.543,11.09-7.503,8.345
			c-10.099-3.062-20.022-4.464-30.409-1.934c-2.661,0.648-5.576,0.502-8.355,0.367c-5.418-0.263-8.301-3.399-7.982-8.699
			c0.212-3.555,0.811-7.346,2.321-10.514c4.223-8.869,4.184-17.802,1.641-26.957c-5.558-20.008-10.78-39.969-2.717-60.678
			c0.675-1.733-1.182-4.996-2.67-6.924c-3.87-5.012-8.189-9.675-11.483-13.494c-1.929,9.175-4.18,20.359-6.649,31.494
			c-2.903,13.085-6.998,16.664-19.19,11.846c-12.23-4.835-23.736-12.11-34.551-19.745c-11.393-8.043-21.433-17.975-32.372-26.694
			c-6.259-4.988-12.979-9.677-22.697-6.658c16.548,1.064,17.747,12.514,17.418,24.502c-0.212,7.803-2.089,15.583-2.017,23.362
			c0.069,7.382-0.837,16.842,3.163,21.7c9.194,11.164,12.289,28.186,29.003,32.648c0.208,0.056,0.176,1.016,0.304,1.871
			c-7.431,6.645-14.714,3.535-22.109-0.376c-9.081-4.804-18.072-9.843-27.442-14.015c-11.092-4.938-13.719-9.816-8.183-20.879
			c4.625-9.244,4.528-18.013,1.123-27.429c-3.123-8.628-5.973-17.397-8.221-26.288c-2.831-11.199-0.76-13.746,10.283-14.685
			c0.248-0.021,0.44-0.691,1.172-1.927c-9.367,0.675-18.116,1.303-26.867,1.934c-0.601-0.875-1.203-1.75-1.805-2.625
			c4.354-4.462,8.707-8.923,13.278-13.611c-18.143-2.516-35.432-5.768-50.51-15.653c-3.402-2.228-5.763-6.041-9.047-9.606
			c-10.464,25.076-34.173,40.058-51.797,60.346c-0.926,1.067-3,1.174-4.564,1.647c-20.247,6.12-40.44,12.432-60.765,18.285
			c-23.134,6.662-38.442,20.635-43.871,44.649c-0.518,2.292-2.951,4.15-5.299,7.282c-2.519-4.054-4.856-6.605-5.842-9.601
			c-5.838-17.743,3.668-33.602,7.187-50.488c-2.184-0.218-3.757-0.376-4.451-0.444c-1.557,4.965-1.955,10.034-4.473,13.612
			c-12.034,17.098-24.651,33.787-37.041,50.636c-1.983,2.699-4.08,5.348-5.748,8.239c-5.887,10.202-2.834,19.105,8.124,23.974
			c1.509,0.67,3.536,0.547,4.702,1.529c2.134,1.799,3.802,4.148,5.666,6.269c-2.287,1.216-4.819,3.787-6.822,3.426
			c-12.197-2.201-24.527-4.257-36.331-7.92c-15.154-4.704-16.654-12.698-5.001-23.479c9.273-8.575,16.472-18.418,19.387-30.699
			c3.258-13.716,8.948-25.349,20.138-34.692c9.002-7.52,8.472-11.701,3.056-22.764c-3.513-7.175-5.986-14.849-9.185-22.187
			c-2.923-6.713-4.883-14.447-9.562-19.679c-12.612-14.106-13.88-29.459-3.273-45.417c4.492-6.76,9.045-14.719,9.773-22.488
			c1.591-16.957,3.102-33.384,15.451-46.553c0.371-0.394,0.7-0.946,0.792-1.469c2.659-15.466,12.396-26.522,23.042-37.007
			c11.239-11.071,11.348-11.918,2.953-25.143c-6.52-10.271-2.032-28.698,9.308-32.377c7.073-2.295,15.489-1.251,23.194-0.529
			c5.129,0.481,10.812,2.054,14.778,5.07c2.041,1.553,0.86,7.331,1.159,11.197c0.043,0.552,0.106,1.152,0.352,1.632
			c5.228,10.253,6.269,19.737,0.646,31.062c-2.941,5.925-4.863,8.749-11.076,9.132c-11.138,0.683-12.65,2.724-10.186,13.604
			c0.726,3.214,2.666,6.144,3.484,9.349c1.834,7.204,5.462,14.808,4.479,21.693c-1.906,13.363-6.09,26.467-10.146,39.422
			c-1.706,5.448-1.33,7.852,4.646,8.418c10.123,0.957,19.792,4.538,30.499,2.249c6.385-1.366,13.525,1.291,16.049,9.132
			c1.991,6.188,3.326,12.411-3.548,17.86c-1.622-1.814-2.76-3.819-4.482-4.863c-3.54-2.151-7.349-5.241-11.129-5.359
			c-10.672-0.336-21.484,1.714-32.052,0.747c-8.597-0.787-16.779-5.562-25.399-6.779c-10.987-1.551-11.91-9.216-12.709-17.308
			c-0.551-5.56-0.253-11.198-0.501-16.794c-0.087-1.965-0.67-3.908-1.024-5.861c-0.678,0.052-1.356,0.105-2.034,0.157
			c0,5.487-0.028,10.974,0.005,16.46c0.111,18.382,2.387,21.332,19.198,28.61c2.73,1.181,6.467,6.699,5.725,8.129
			c-4.185,8.058,0.703,12.872,5.268,17.604c12.673,13.146,25.583,26.064,38.534,38.939c6.23,6.195,6.524,11.038-0.064,17.026
			c-3.899,3.543-8.372,6.456-12.588,9.651c-8.003,0.582-16.008,1.164-24.011,1.746c0.118,0.903,0.238,1.808,0.358,2.713
			c8.242,1.154,16.179,0.4,23.429-4.689c5.845-3.444,12.458-6.05,17.357-10.531c11.18-10.232,22.832-18.76,38.57-20.101
			c6.865-0.586,10.137-5.213,12.992-11.375c5.564-12.01,12.445-23.405,18.543-35.177c2.494-4.815,6.608-10.184,6.119-14.899
			c-1.586-15.271,5.093-24.529,17.236-32.539c6.096-4.019,11.982-10.69,14.422-17.439c5.273-14.609-0.043-28.906-4.613-42.74
			c-14.636,0.995-22.521,9.042-26.267,21.705c-2.762,9.339-4.82,18.894-7.796,28.161c-3.103,9.659-8.99,14.476-17.466,13.921
			c-3.564-0.231-6.968-2.903-10.445-4.466c2.053-3.264,3.361-8.07,6.305-9.493c7.623-3.688,10.37-9.304,10.621-17.2
			c0.169-5.285,0.754-10.59,1.6-15.814c1.888-11.664,1.289-24.7,14.232-31.159c9.967-4.973,20.32-9.162,30.322-14.064
			c7.619-3.732,15.282-7.547,22.339-12.212c8.521-5.628,8.086-9.871,3.382-18.952c-3.251-6.275-6.107-14.359-5.021-20.955
			c2.591-15.696,31.223-24.347,43.959-14.227c0.62,0.493,1.572,1.227,1.533,1.791c-0.873,12.808,9.7,22.841,7.424,36.776
			c-1.51,9.255-1.646,15.432-12.668,14.744c-0.788-0.049-1.608,0.432-2.417,0.665c-5.628,1.635-6.71,5.925-3.178,9.454
			c11.601,11.597,8.432,27.593,12.195,41.267c4.77,17.336,3.464,18.77,21.728,17.952c2.22-0.099,4.428-0.892,6.633-0.852
			c8.561,0.154,15.032-2.849,19.242-10.766c2.065-3.88,4.773-7.92,8.25-10.399c3.223-2.299,10.421-4.648,11.395-3.423
			c2.928,3.684,5.384,9.352,4.745,13.772c-0.548,3.802-5.407,7.158-8.736,10.315c-1.732,1.642-4.714,1.99-6.389,3.665
			c-16.97,16.969-39.015,20.341-61.275,23.383c-5.812,0.795-7.871-1.591-8.777-7.029c-0.531-3.193-2.89-6.083-4.428-9.11
			c5.415,17.202,4.721,23.127-2.386,35.587c-4.904,8.6-3.681,11.424,5.581,17.614c15.313,10.238,30.822,20.193,45.932,30.724
			c3.85,2.685,6.506,7.083,8.963,9.848c4.431,4.572,8.955,7.675,11.27,11.971c4.127,7.649,9.721,12.042,17.993,14.888
			c12.293,4.228,24.035,10.048,35.679,15.047c-0.607-2.499-2.079-6.132-2.295-9.838c-0.899-15.369-2.666-30.425-8.019-45.11
			c-3.095-8.495-0.785-16.901,5.234-24.308c4.965-6.109,9.003-12.967,13.006-18.837c-5.779-1.99-10.615-3.05-14.872-5.237
			c-10.175-5.226-12.708-11.667-7.815-21.894c3.581-7.49,7.69-15.169,13.272-21.173c14.143-15.207,29.021-29.758,44.058-44.1
			c8.922-8.51,9.628-15.327,1.615-24.269c-2.261-2.521-4.131-6.06-4.645-9.37c-2.737-17.637,8.85-30.081,26.664-28.795
			c4.97,0.36,9.864,1.739,14.808,2.566c7.465,1.248,10.123,5.731,11.04,13.135c0.958,7.745,3.937,15.238,6.108,23.112
			c-1.12,4.011-2.877,9.022-3.855,14.182c-0.975,5.146-3.454,6.713-8.659,6.535c-11.463-0.394-13.266,3.013-9.358,14.166
			c2.358,6.727,3.875,13.782,5.328,20.781c2.619,12.612-6.354,22.713-7.902,34.5c-0.687,5.226-2.673,10.283-4.228,16
			c-10.867-9.342-11.923-14.537-6.362-25.582c3.389-6.729,6.595-13.547,9.884-20.324c-0.829-0.386-1.658-0.772-2.486-1.158
			c-1.967,4.546-3.096,9.746-6.045,13.526c-11.468,14.706-8.262,26.352,3.77,39.696c11.43,12.682,19.948,28.051,29.286,42.535
			c6.239,9.677,2.362,23.748-7.459,27.76c-1.117-2.799-3.348-5.681-3.149-8.385c0.739-10.056-4.92-17.109-10.869-23.621
			c-11.119-12.168-23.164-23.483-34.38-35.562c-7.847-8.446-15.049-17.487-10.541-30.469c1.438-4.143,2.349-8.467,3.502-12.708
			c-14.687,22.493-9.456,34.095,5.692,45.509c8.063,6.073,16.51,11.836,13.42,24.344c-0.667,2.707,0.553,6.125,1.583,8.969
			c8.035,22.199,16.345,44.3,24.283,66.534c1.37,3.837,2.307,8.263,1.859,12.24c-2.368,21.024-4.952,42.036-8.035,62.967
			c-2.363,16.034-0.414,20.854,13.681,28.555c4.392,2.398,8.766,4.834,13.148,7.252C523.559,387.017,524.125,387.67,524.691,388.324
			z M91.479,274.314c2.271-26.427,6.011-53.096-13.243-75.771C90.719,222.482,88.988,248.769,91.479,274.314z M100.432,165.291
			c1.12-12.542,2.332-26.12,3.543-39.698c-0.453-0.082-0.906-0.166-1.359-0.248c-2.119,11.631-4.239,23.261-6.587,36.145
			C97.279,162.57,99.662,164.625,100.432,165.291z M438.706,137.576c-1.363-0.106-2.724-0.213-4.086-0.32
			c-0.639,8.523-1.277,17.046-1.915,25.568c1.281,0.026,2.562,0.051,3.844,0.076C437.268,154.459,437.987,146.017,438.706,137.576z
			 M293.365,129.984c0.851-0.281,1.701-0.562,2.551-0.841c-2.562-8.831-5.125-17.663-7.689-26.494
			c-1.325,0.428-2.65,0.857-3.976,1.284C287.289,112.617,290.326,121.301,293.365,129.984z M460.978,247.454
			c0.532,0.023,1.064,0.046,1.596,0.067c0.459-9.278,0.916-18.558,1.375-27.836c-0.991-0.031-1.981-0.062-2.972-0.094
			C460.978,228.879,460.978,238.167,460.978,247.454z"/>
		<path fill-rule="evenodd" clip-rule="evenodd" fill="#323232" d="M662.855,281.658c-2.296,0-4.591,0-6.888,0
			c-0.509-0.735-1.019-1.472-1.527-2.208c3.257-3.366,6.419-6.834,9.809-10.063c1.955-1.862,5.003-2.901,6.308-5.065
			c6.313-10.478,18.279-15.057,28.314-8.927c9.175,5.607,18.896,6.126,28.909,6.417c17.352,0.502,35.03-2.869,52.385,5.54
			c0.61-5.663,0.976-10.363,1.651-15.02c0.996-6.863,2.365-13.673,3.294-20.544c0.822-6.09,1.095-12.253,1.931-18.339
			c0.512-3.727,0.962-7.717,2.645-10.963c1.966-3.791,5.244-6.899,8.711-11.256c-14.871,9.521-21.252,12.208-25.473,9.416
			c-2.486-1.645-3.762-5.121-6.062-8.474c18.797-2.42,22.604-11.897,12.355-26.251c-14.355-20.106-4.894-52.738,17.549-62.341
			c5.354-2.291,9.951-6.781,14.301-10.891c6.625-6.262,12.434-13.396,19.14-19.562c6.709-6.17,6.365-9.201,2.233-17.203
			c-4.055-7.851-8.033-17.149-7.613-25.591c0.713-14.395,15.863-22.911,32.906-20.349c5.416,0.814,11.295,2.303,15.559,5.41
			c2.068,1.507,0.888,7.462,1.195,11.401c0.064,0.835,0.111,1.689,0.32,2.495c2.508,9.645,4.996,18.717,2.041,29.376
			c-3.122,11.27-1.504,11.718-13.531,10.324c-4.246,5.681-3.951,11.279-1.07,17.732c7.298,16.351,9.115,33.269,2.561,50.391
			c-2.236,5.839,0.6,9.428,5.082,11.667c8.812,4.402,16.789,10.401,27.577,10.741c9.43,0.295,15.29,8.996,14.296,18.277
			c-0.614,5.74-9.014,10.219-13.979,7.602c-13.926-7.339-27.905-14.578-43.732-22.83c-1.35,10.859-3.08,19.28-3.227,27.729
			c-0.113,6.474-1.938,8.965-7.077,7.252c14.422,26.746,35.062,50.48,43.796,80.896c3.829,13.335,8.111,26.542,11.893,39.89
			c3.653,12.894,3.445,27.334,15.818,36.577c1.469,1.099,2.584,5.464,1.729,6.437c-6.863,7.794-3.107,14.314,1.581,21.057
			c0.822,1.181,0.727,2.999,1.277,5.556c-7.854-3.1-14.646-6.078-21.642-8.457c-6.979-2.374-10.356-7.122-8.702-14.024
			c2.557-10.664-2.285-18.494-7.918-26.587c-12.057-17.324-21.811-35.7-24.113-57.198c-0.163-1.519-0.898-3.402-2.019-4.325
			c-10.526-8.664-21.194-17.157-30.533-24.662c-4.882,9.012-9.164,17.173-13.696,25.192c-2.736,4.843-6.152,9.312-8.742,14.225
			c-3.552,6.741-13.006,12.104-20.07,10.089c-15.209-4.336-31.224-7.219-45.219-14.123c-22.532-11.114-45.668-11.173-69.443-9.247
			c-1.798,0.146-3.455,2.024-5.178,3.099L662.855,281.658z M808.373,128.211c-10.032,1.701-11.244,2.461-10.98,13.504
			c0.291,12.202,1.867,24.373,2.883,36.557c0.447,0.083,0.893,0.163,1.34,0.243C803.862,161.79,806.109,145.063,808.373,128.211z"/>
		<path fill-rule="evenodd" clip-rule="evenodd" fill="#323232" d="M522.992,386.363c0.566,0.653,1.133,1.307,1.699,1.961
			c5.543,4.809,10.155,11.906,18.107,8.252c-1.105-8.702-1.439-17.24-3.398-25.389c-3.093-12.863,3.376-20.429,12.468-27.699
			c11.09-8.867,21.711-18.338,32.3-27.81c8.051-7.201,16.804-13.982,23.353-22.419c12.973-16.713,24.637-34.441,37.646-52.888
			c-7.329-4.607-13.832-8.695-20.336-12.783c0.174-0.407,0.347-0.814,0.521-1.222c4.843,2.222,9.84,4.167,14.498,6.729
			c7.581,4.168,14.824,8.956,22.431,13.074c5.755,3.116,11.181,5.86,18.732,2.875c4.411-1.744,10.864,0.557,16.043,2.174
			c6.054,1.891,11.72,5.022,17.47,7.577c5.308-5.109,3.349-10.109-0.132-13.709c-16.054-16.604-32.51-32.819-48.19-48.54
			c0.444-0.8,2.626-3.059,2.855-5.5c0.465-4.981-0.582-10.103-0.138-15.089c0.408-4.576,0.535-10.338,3.254-13.343
			c10.467-11.559,10.563-26.657,15.189-40.161c0.861-2.515,0.836-5.75,0.091-8.326c-3.299-11.409-6.535-22.879-10.727-33.973
			c-3.209-8.49-2.879-9.866,6.063-10.055c11.315-0.238,9.533-0.634,12.006-11.769c3.267-14.711-3.433-28.06-2.73-42.184
			c0.058-1.149-2.373-2.826-3.967-3.589c-10.458-5.007-21.371-6.36-32.541-2.861c-13.934,4.364-19.086,17.083-12.343,30.006
			c1.291,2.474,2.868,4.795,4.25,7.224c5.465,9.609,4.869,13.573-2.577,21.626c-5.125,5.543-9.605,11.71-14.961,17.005
			c-7.667,7.581-15.046,15.915-24.015,21.625c-19.186,12.215-22.173,33.088-17.652,52.501c3.426,14.708,3.18,17.192-9.191,26.854
			c-4.309,3.364-7.367,8.48-10.409,13.174c-0.511,0.788,1.544,4.436,3.155,5.2c8.767,4.15,22.918-2.675,26.314-13.288
			c5.746-17.955,11.016-36.078,15.866-54.294c2.042-7.669,5.521-12.967,13.24-15.711c5.424-1.929,10.434-5.021,16.542-6.162
			c-5.588,3.294-11.459,6.205-16.638,10.05c-2.396,1.778-4.996,5.463-4.849,8.137c1.09,19.889-3.832,37.474-16.945,52.867
			c-6.23,7.314-7.817,16.13-6.072,26.007c0.96,5.439-0.304,11.593-1.817,17.079c-3.004,10.891-7.598,21.375-10.138,32.351
			c-1.781,7.687-4.923,13.834-11.656,17.436c-13.256,7.095-21.341,18.48-27.946,31.394c-2.793,5.461-5.884,10.794-9.165,15.978
			c-3.961,6.257-8.874,10.928-16.735,12.785c-10.297,2.433-10.695,6.393-6.816,16.362
			C518.779,365.622,520.414,376.176,522.992,386.363z"/>
		<path fill-rule="evenodd" clip-rule="evenodd" fill="#323232" d="M662.855,281.658c-10.949,10.819-17.945,25.478-33.238,32.187
			c-6.567,2.882-5.563,9.657-2.652,15.366c4.149,8.134,8.62,16.102,12.809,24.214c4.859,9.407,13.256,14.765,23.657,13.939
			c-1.013-2.634-1.477-5.264-2.871-7.237c-11.763-16.65-8.358-41.557,7.765-53.938c7.747-5.948,15.933-11.323,23.715-17.226
			c2.423-1.839,4.177-4.562,6.351-7.006c-12.686,0-24.263,0-35.833-0.009C662.566,281.942,662.855,281.658,662.855,281.658z"/>
		<path fill-rule="evenodd" clip-rule="evenodd" fill="#323232" d="M954.732,299.854c3.445-7.254,7.517-14.304,9.98-21.877
			c0.812-2.499-2.525-6.349-3.965-9.582c-2.98,2.819-7.92,5.269-8.535,8.533c-1.32,6.989-0.405,14.4-0.405,21.64
			C952.783,298.996,953.758,299.426,954.732,299.854z"/>
	</g>
</g>
</svg>
