<?xml version="1.0" encoding="utf-8"?>
<!-- Generator: Adobe Illustrator 16.0.0, SVG Export Plug-In . SVG Version: 6.00 Build 0)  -->
<!DOCTYPE svg PUBLIC "-//W3C//DTD SVG 1.1//EN" "http://www.w3.org/Graphics/SVG/1.1/DTD/svg11.dtd">
<svg version="1.1" id="Layer_1" xmlns="http://www.w3.org/2000/svg" xmlns:xlink="http://www.w3.org/1999/xlink" x="0px" y="0px"
	 width="539.815px" height="392.728px" viewBox="0 0 539.815 392.728" enable-background="new 0 0 539.815 392.728"
	 xml:space="preserve">
<path fill-rule="evenodd" clip-rule="evenodd" fill="#FFFFFF" fill-opacity="0.25" d="M189.609,287.028
	c-1.086,1.146-2.543,2.552-3.852,4.084c-5.052,5.918-11.793,8.691-19.054,10.816c-19.642,5.751-39.014,2.844-58.22-1.905
	c-3.508-0.867-6.625-4.115-9.405-6.802c-1.467-1.417-2.578-2.351-4.682-2.521c-10.975-0.885-22.097-1.101-32.867-3.14
	c-21.853-4.139-32.778-16.71-37.174-37.644c-0.541-2.577-1.513-5.286-1.171-7.781c0.807-5.893-1.577-10.149-5.624-13.93
	C8.667,219.9,4.707,208.612,1.672,197.61c-2.838-10.288-1.668-21.392,0.577-32.114c2.312-11.038,8.053-19.904,16.227-27.353
	c1.749-1.594,2.316-3.244,2.433-5.583c0.346-6.924,0.555-13.922,1.759-20.724c2.517-14.213,10.942-24.76,23.036-31.943
	c8.185-4.862,17.28-8.177,25.861-12.4c1.874-0.922,3.986-2.447,4.81-4.237c5.34-11.594,14.039-19.862,24.888-26.125
	c9.787-5.649,19.65-10.982,31.275-12.04c6.495-0.59,11.416-2.491,16.687-6.158c15.361-10.69,33.051-12.707,50.95-14.237
	c13.683-1.17,26.769,1.378,39.511,6c4.589,1.665,8.167,1.177,12.24-1.794c8.026-5.854,17.315-8.421,27.298-8.824
	c18.364-0.744,35.403,3.866,51.368,12.564c3.712,2.022,6.58,5.543,10.056,8.075c1.358,0.989,3.402,1.797,4.992,1.59
	c22.929-2.98,44.615,0.197,63.791,13.77c5.673,4.016,9.928,9.998,15.045,14.854c1.52,1.441,3.654,2.585,5.695,3.064
	c9.927,2.332,20.086,4.24,28.727,9.895c10.126,6.628,20.552,13.489,26.083,24.68c3.494,7.07,7.116,12.917,14.387,16.854
	c5.24,2.838,9.233,7.82,11.864,13.633c2.515,5.557,5.716,10.798,8.444,16.263c5.461,10.939,5.252,22.754,4.91,34.519
	c-0.109,3.79,0.794,6.564,3.428,9.568c7.782,8.88,11.145,19.688,11.7,31.384c0.662,13.901-1.974,27.177-7.634,39.892
	c-0.701,1.574-0.974,3.464-0.972,5.206c0.015,10.919,0.307,21.839,0.226,32.756c-0.072,9.854-1.891,19.495-7.568,27.67
	c-3.152,4.54-7.839,8.01-11.795,12.001c-0.706,0.713-1.578,1.543-1.766,2.445c-2.686,12.929-9.353,23.334-19.288,31.951
	c-9.95,8.63-21.674,14.074-33.45,19.442c-15.359,7.002-31.449,10.732-48.436,10.568c-12.494-0.119-24.271-2.491-34.945-9.293
	c-5.256-3.349-10.562-6.618-15.89-9.854c-0.714-0.433-1.776-0.806-2.515-0.605c-11.191,3.038-22.252,6.643-33.555,9.169
	c-12.964,2.897-26.049,5.754-39.236,7.046c-29.215,2.863-54.651-5.812-74.211-28.337c-11.963-13.775-18.521-30.198-19.418-48.516
	C188.85,303.888,189.463,295.393,189.609,287.028z M128.361,55.345c-1.782,2.094-2.938,4.54-6.381,2.241
	c-3.933-2.625-8.035-0.081-8.015,4.741c0.008,2.007-0.285,3.247-2.594,3.909c-2.471,0.709-3.149-0.622-4.087-2.245
	c-2.366-4.096-7.269-4.18-9.354,0.085c-1.466,2.999-3.535,2.83-5.441,1.484c-0.959-0.676-1.217-2.882-1.15-4.368
	c0.152-3.395-2.755-3.683-4.673-4.59c-0.796-0.376-2.926,0.786-3.656,1.813c-1.579,2.22-2.484,4.909-3.98,7.201
	c-0.955,1.463-2.254,3.03-3.778,3.741c-8.783,4.097-17.989,7.387-26.458,12.033c-10.424,5.718-17.308,15.008-21.727,25.975
	c-3.452,8.569-3.242,17.618-2.568,26.622c0.173,2.316-0.509,3.824-2.227,5.246c-5.791,4.793-10.606,10.375-13.721,17.32
	c-2.858,6.375-3.797,13.121-4.456,18.744c2.39,1.373,4.185,1.979,5.393,3.177c3.866,3.833,7.437,3.902,11.229,0.002
	c1.148-1.181,1.87-2.98,4.377-1.974c2.409,0.968,1.988,2.601,1.949,4.352c-0.131,5.848,2.179,8.137,8.055,7.971
	c1.764-0.05,3.43-0.465,4.392,1.919c0.933,2.314-0.672,3.008-1.816,4.074c-4.287,3.991-4.262,7.325-0.16,11.304
	c0.99,0.961,1.869,2.634,1.819,3.941c-0.094,2.518-2.271,2.187-4.095,2.129c-6.111-0.196-8.238,2.029-8.265,8.148
	c-0.005,1.293-0.601,2.945-1.516,3.797c-1.798,1.674-3.131,0.139-4.46-1.211c-1.502-1.525-2.588-4.24-5.861-2.53
	c3.111,3.513,6.314,6.763,9.042,10.373c1.265,1.675,1.901,3.992,2.306,6.117c1.34,7.02,1.704,14.313,3.792,21.086
	c4.408,14.299,15.137,22.25,29.165,26.013c12.16,3.261,24.63,3.579,37.14,3.482c1.614-0.012,3.903,0.891,4.743,2.136
	c3.579,5.309,8.699,7.495,14.663,8.794c12.896,2.809,25.871,3.74,38.979,2.23c18.86-2.174,32.673-11.122,40.226-29.203
	c2.839-6.796,6.469-13.491,10.904-19.351c21.289-28.13,59.896-39.165,93.036-26.933c23.11,8.531,47.943,33.364,47.158,64.085
	c-0.782,30.593-11.143,55.899-39.462,71.377c-13.865,7.579-28.439,10.726-44.056,7.96c-50.829-9.002-67.98-64.865-41.726-102.251
	c17.852-25.421,52.13-33.388,78.731-18.479c21.147,11.85,28.778,35.342,25.74,56.682c-1.555,10.923-5.652,20.855-14.118,28.401
	c-2.68,2.388-5.97,4.903-9.691,2.675c-3.458-2.07-2.58-5.952-2.007-9.212c1.538-8.736,3.3-17.435,4.982-26.146
	c2.198-11.387,4.406-22.772,6.671-34.476c-5.093,0-9.809,0-14.643,0c-0.957,4.009-1.881,7.879-2.916,12.213
	c-1.57-1.708-2.672-2.954-3.825-4.149c-4.516-4.684-9.759-8.202-16.254-9.367c-15.031-2.692-27.546,2.031-37.26,13.618
	c-9.569,11.415-13.518,24.922-11.804,39.591c1.709,14.632,9.366,25.723,23.385,31.158c13.599,5.273,25.626,1.211,36.281-8.003
	c0.789-0.683,1.592-1.35,2.559-2.168c0.398,1.302,0.691,2.334,1.03,3.351c2.239,6.739,6.153,9.411,13.283,8.936
	c6.935-0.463,12.984-3.271,18.422-7.421c10.635-8.116,17.105-18.961,20.356-31.802c6.802-26.869,1.438-50.09-19.571-69.386
	c-25.183-23.129-64.312-23.464-90.082-7.099c-27.955,17.751-39.682,44.033-37.653,76.569c2.64,42.343,36.875,74.147,79.251,74.339
	c12.333,0.056,24.447-1.567,36.316-4.576c15.649-3.967,31.957-5.45,46.886-12.286c1.297-0.595,3.687,0.345,5.197,1.215
	c7.164,4.127,13.956,8.977,21.362,12.58c5.285,2.572,11.229,4.39,17.061,5.131c17.932,2.278,35.383-0.02,52.084-7.267
	c15.85-6.878,31.979-13.279,43.736-26.807c5.825-6.702,10.125-14.309,11.915-23.013c0.594-2.885,1.812-4.589,3.887-6.409
	c3.582-3.142,7.283-6.352,10.057-10.17c5.462-7.518,7.218-16.435,7.292-25.534c0.091-11.035-0.431-22.073-0.562-33.111
	c-0.021-1.723,0.299-3.605,1.016-5.157c6.208-13.451,8.974-27.521,7.836-42.307c-0.793-10.303-3.788-19.838-11.192-27.35
	c-2.961-3.005-3.861-6.116-3.837-10.188c0.058-10.026,1.255-20.272-2.92-29.83c-2.822-6.459-6.366-12.6-9.312-19.009
	c-2.571-5.595-6.277-10.158-11.214-13.729c-2.32-1.678-4.757-3.228-7.271-4.594c-2.471-1.345-3.799-3.232-4.764-5.908
	c-1.408-3.906-2.913-8.044-5.447-11.233c-13.526-17.019-31.411-26.607-52.785-30.044c-2.021-0.325-4.19-1.542-5.688-2.975
	c-6.695-6.402-11.953-14.045-20.584-18.701c-17.114-9.233-35.103-11.507-53.958-9.11c-3.019,0.384-5.336,0.32-7.484-1.889
	c-8.089-8.319-17.95-13.452-29.166-16.158c-3.028-0.73-5.977-1.822-9.024-2.443c-15.258-3.11-30.801-4.29-44.066,5.132
	c-8.707,6.185-16.198,5.171-24.903,1.768c-4.745-1.855-9.813-3.223-14.857-3.909c-15.211-2.071-30.149,0.71-44.966,3.678
	c-9.666,1.936-18.208,6.721-25.708,13.032c-2.5,2.104-4.562,4.046-8.051,3.483c-1.166-0.188-2.513-0.302-3.566,0.101
	c-1.607,0.615-4.026,1.468-4.315,2.654c-0.521,2.139-1.327,5.074,1.955,6.471c1.864,0.793,3.553,1.586,2.717,4.49
	c-0.792,2.751-2.575,2.307-4.432,2.353c-4.021,0.098-6.451,4.212-4.539,7.685C127.182,53.236,127.761,54.267,128.361,55.345z
	 M292.042,270.078c0.211-0.743,0.471-1.539,0.661-2.35c1.285-5.479,1.28-5.487,6.797-5.504c3.737-0.011,7.475-0.002,11.957-0.002
	c-9.146-10.866-20.178-16.056-32.999-17.574c-20.11-2.38-37.201,3.839-50.684,19.004c-12.641,14.22-16.908,31.188-14.682,49.797
	c2.044,17.081,10.5,30.662,24.187,40.903c9.453,7.074,20.302,10.53,32.048,11.478c17.269,1.394,32.094-4.595,45.178-14.091
	c-5.065,0.835-10.626,2.289-16.239,2.535c-6.318,0.277-10.603-3.562-13.1-9.457c-1.138,0.822-1.905,1.377-2.673,1.932
	c-22.016,15.891-51.481,5.839-59.247-20.229c-5.25-17.623-1.373-33.649,8.899-48.366c9.965-14.275,30.278-22.736,48.73-14.906
	C284.757,264.895,288.162,267.666,292.042,270.078z M314.774,266.837c-0.338,1.421-0.58,2.287-0.747,3.167
	c-2.525,13.294-5.052,26.588-7.553,39.887c-1.217,6.469-2.442,12.938-3.505,19.433c-0.167,1.024,0.193,2.688,0.896,3.139
	c0.646,0.414,2.355-0.093,3.126-0.748c2.443-2.078,5.104-4.112,6.899-6.705c8.037-11.604,10.127-24.584,8.047-38.365
	C320.9,279.762,318.97,273.19,314.774,266.837z M122.454,30.741c-3.128,0.379-3.128,0.379-3.475,3.53
	c-1.336,12.125-12.65,18.659-23.736,13.52c-2.461-1.141-3.428-0.173-4.547,1.561c6.624,5.074,15.227,5.502,22.365,1.208
	C120.019,46.374,123.846,38.299,122.454,30.741z M14.942,194.903c-2.992,0.103-5.461,2.642-5.454,5.606
	c0.007,3.1,2.731,5.718,5.83,5.604c3.148-0.116,5.619-2.838,5.425-5.977C20.561,197.181,17.922,194.8,14.942,194.903z"/>
<path fill-rule="evenodd" clip-rule="evenodd" fill="#FFFFFF" fill-opacity="0.25" d="M85.956,213.241
	c-0.516,0.022-0.64,0.052-0.754,0.03c-10.209-1.879-10.378-1.884-10.123-11.896c0.09-3.536-1.494-5.011-4.139-6.978
	c-5.286-3.928-9.945-4.276-14.868,0.149c-3.149,2.831-5.816,2.287-8.278-1.031c-1.131-1.525-2.598-2.8-4.086-4.372
	c1.882-3.269,3.881-6.392,5.48-9.707c0.554-1.149,0.504-2.908,0.071-4.161c-2.612-7.57-7.573-11.397-15.918-9.478
	c-2.553,0.588-3.495-0.826-4.161-3.115c-2.199-7.553-2.252-7.485,4.208-11.313c2.009-1.191,5.111-2.411,5.484-4.107
	c0.83-3.774,0.304-7.859,0.183-11.813c-0.016-0.51-0.838-1.097-1.405-1.47c-1.199-0.79-2.474-1.466-3.721-2.183
	c-7.407-4.264-7.608-4.709-4.299-12.698c0.375-0.905,1.795-1.405,2.779-2.014c0.261-0.161,0.721-0.095,1.062-0.017
	c8.388,1.931,13.246-2.063,15.858-9.586c0.403-1.162,0.486-2.799-0.03-3.849c-1.629-3.316-3.614-6.458-5.439-9.63
	c0.252-0.452,0.379-0.794,0.599-1.058c6.329-7.638,6.434-7.804,14.777-2.649c3.213,1.985,5.432,1.469,8.692-0.044
	c5.687-2.639,8.228-6.224,7.14-12.493c-0.304-1.753-0.216-4.845,0.701-5.303c2.936-1.465,6.334-2.021,9.583-2.805
	c0.334-0.081,0.931,0.612,1.29,1.042c0.379,0.454,0.617,1.024,0.919,1.542c5.469,9.35,5.472,9.405,16.325,8.762
	c1.146-0.068,2.519-1.047,3.27-2.008c1.317-1.683,2.532-3.572,3.252-5.568c1.394-3.862,3.861-4.264,7.241-2.937
	c1.221,0.479,2.698,0.484,3.746,1.177c0.978,0.647,1.576,1.898,2.264,2.935c0.166,0.25,0.092,0.718,0.016,1.062
	c-1.869,8.392,2.133,13.238,9.684,15.795c1.16,0.393,2.783,0.465,3.83-0.05c3.319-1.637,6.467-3.622,10.668-6.041
	c1.91,2.27,4.023,4.57,5.848,7.081c0.522,0.719,0.605,2.241,0.205,3.059c-1.365,2.794-3.192,5.364-4.508,8.177
	c-0.492,1.053-0.401,2.654,0.002,3.803c2.625,7.488,7.433,11.524,15.84,9.591c2.467-0.567,3.598,0.663,4.296,3.023
	c2.255,7.631,2.433,7.789-4.829,11.648c-3.609,1.918-5.14,4.001-5.36,8.426c-0.306,6.159,1.493,9.891,7.23,12.063
	c1.729,0.655,4.379,2.387,4.335,3.538c-0.119,3.14-1.411,6.245-2.359,9.326c-0.108,0.353-0.968,0.561-1.513,0.67
	c-0.578,0.116-1.195,0.035-1.794,0.04c-11.141,0.095-11.173,0.079-16.027,9.878c-0.435,0.877-0.272,2.187-0.039,3.218
	c0.202,0.895,0.895,1.678,1.374,2.508c5.205,9.011,5.161,9.199-3.767,15.489c-3.14-1.805-6.288-3.787-9.606-5.421
	c-1.046-0.515-2.548-0.118-3.842-0.096c-0.208,0.004-0.398,0.269-0.62,0.346c-7.437,2.579-10.716,7.564-9.048,15.481
	c0.55,2.614-0.704,3.749-3.239,4.456c-7.372,2.056-7.304,2.149-11.205-4.461c-1.129-1.914-2.284-4.946-3.852-5.246
	c-3.927-0.751-8.102-0.321-12.166-0.126c-0.645,0.03-1.352,1.233-1.822,2.02C89.548,206.932,87.789,210.06,85.956,213.241z
	 M99.517,97.929c-24.047-0.102-43.591,19.255-43.685,43.265c-0.094,24.206,19.448,43.872,43.55,43.827
	c23.964-0.045,43.537-19.584,43.586-43.513C143.018,117.562,123.542,98.03,99.517,97.929z"/>
<path fill-rule="evenodd" clip-rule="evenodd" fill="#FFFFFF" fill-opacity="0.25" d="M336.667,112.413
	c-1.114,1.205-2.131,2.375-3.226,3.465c-1.096,1.09-2.271,2.1-3.465,3.195c-2.241-1.277-4.443-2.289-6.363-3.687
	c-2.438-1.775-4.332-1.437-7.089-0.187c-5.257,2.384-7.528,5.809-6.302,11.413c0.835,3.819-1.589,4.618-4.469,5.339
	c-2.77,0.693-5.469,1.628-6.531-2.281c-1.996-7.345-7.659-7.388-13.572-6.737c-0.885,0.097-1.92,0.855-2.464,1.611
	c-1.186,1.647-2.322,3.399-3.072,5.271c-1.146,2.859-2.841,3.179-5.625,2.357c-5.351-1.58-5.35-1.417-5.425-7.104
	c-0.027-2.106,0.444-5.035-0.704-6.139c-2.349-2.259-5.604-3.609-8.582-5.148c-0.505-0.261-1.553,0.284-2.239,0.659
	c-2.625,1.438-5.205,2.958-8.192,4.67c-1.73-1.686-3.662-3.283-5.194-5.201c-0.601-0.75-0.347-2.216-0.389-3.36
	c-0.011-0.308,0.271-0.674,0.507-0.934c4.545-5.02,3.972-9.996-0.327-14.738c-0.966-1.066-2.582-1.558-3.931-2.251
	c-0.285-0.146-0.709-0.021-1.069-0.021c-8.499-0.014-8.499-0.014-9.979-9.12c2.466-1.453,5.171-2.776,7.532-4.555
	c1.103-0.831,1.916-2.46,2.218-3.866c1.326-6.161-0.681-10.622-6.986-12.702c-0.985-0.325-1.826-1.084-2.689-1.615
	c0-0.511-0.063-0.875,0.009-1.209c1.738-8.005,1.744-8.138,10.043-7.946c2.783,0.064,4.045-1.047,5.653-3.19
	c3.428-4.567,3.719-8.604,0.025-13.051c-0.883-1.062-1.849-3.331-1.351-4.031c1.564-2.2,3.716-4.033,5.867-5.716
	c0.408-0.319,1.914,0.6,2.822,1.109c7.695,4.319,7.719,4.376,15.103-0.484c0.898-0.591,1.506-1.926,1.811-3.036
	c0.307-1.115,0.067-2.381,0.067-3.581c-0.002-6.193,1.395-7.671,7.803-7.958c0.741-0.033,1.669,0.558,2.237,1.13
	c0.653,0.658,1.161,1.565,1.462,2.456c1.732,5.136,5.288,6.474,10.489,6.089c3.121-0.231,5.254-0.792,6.339-3.822
	c0.159-0.443,0.474-0.831,0.713-1.246c2.922-5.059,5.625-5.823,10.798-2.914c0.587,0.33,1.051,1.191,1.21,1.888
	c0.209,0.913,0.219,1.94,0.036,2.863c-1.07,5.41,1.22,8.512,6.132,10.826c2.868,1.352,4.779,1.499,7.454-0.145
	c6.694-4.115,6.776-3.984,12.056,2.072c0.234,0.268,0.406,0.59,0.737,1.078c-0.589,1.061-1.206,2.206-1.854,3.333
	c-3.992,6.951-3.885,8.671,1.239,15.04c0.504,0.626,1.526,1.077,2.352,1.157c1.783,0.175,3.629,0.28,5.388,0.011
	c3.566-0.546,4.821,1.102,5.9,4.345c1.386,4.17-0.104,6.077-3.646,7.655c-1.913,0.853-4.683,2.042-5.073,3.585
	c-0.799,3.156-0.315,6.656-0.198,10.008c0.019,0.522,0.82,1.122,1.385,1.498c1.196,0.794,2.512,1.409,3.713,2.199
	c1.56,1.025,4.253,2.071,4.329,3.247c0.162,2.491-1.008,5.086-1.753,7.603c-0.121,0.412-0.821,0.77-1.323,0.92
	c-0.554,0.165-1.216,0.184-1.784,0.058c-6.782-1.513-10.902,1.52-12.985,7.746c-0.419,1.255-0.532,2.955-0.021,4.109
	C333.428,107.153,335.094,109.658,336.667,112.413z M289.624,35.367c-20.262,0.024-36.62,16.279-36.767,36.536
	c-0.146,20.283,16.415,36.997,36.7,37.034c20.324,0.038,36.953-16.501,36.984-36.788C326.573,51.854,310.002,35.343,289.624,35.367z
	"/>
<path fill-rule="evenodd" clip-rule="evenodd" fill="#FFFFFF" fill-opacity="0.25" d="M201.571,25.434
	c-2.914,6.584,2.928,8.705,5.794,12.298c0.379,0.476,1.536,0.461,2.329,0.45c2.037-0.03,4.072-0.185,6.108-0.292
	c4.257-0.224,6.308,1.451,6.809,5.707c0.069,0.584-0.245,1.36-0.642,1.822c-0.776,0.903-1.622,1.855-2.642,2.421
	c-5.338,2.961-5.966,7.824-5.387,13.135c0.102,0.935,0.711,1.952,1.377,2.657c1.395,1.478,2.848,2.974,4.522,4.101
	c2.943,1.981,3.21,4.139,1.598,7.208c-1,1.903-2.036,2.763-4.128,2.412c-0.82-0.138-1.724,0.11-2.507-0.11
	c-5.948-1.675-9.592,1.873-13.041,5.75c-0.546,0.615-0.794,1.685-0.806,2.549c-0.027,2.034-0.08,4.123,0.335,6.093
	c0.806,3.83-1.09,5.649-4.431,6.214c-1.255,0.212-2.751-0.371-3.99-0.924c-0.812-0.362-1.543-1.219-1.991-2.031
	c-3.025-5.478-8.164-5.397-13.338-5.092c-0.815,0.049-1.709,0.719-2.353,1.328c-1.392,1.315-2.645,2.778-3.954,4.181
	c-3.485,3.737-4.16,3.917-8.416,1.367c-0.798-0.478-1.279-1.751-1.557-2.753c-0.246-0.883-0.217-1.967,0.056-2.851
	c1.84-5.953-1.516-9.66-5.588-13.007c-0.732-0.603-1.872-0.959-2.835-0.984c-2.393-0.061-4.812-0.029-7.182,0.274
	c-2.542,0.325-3.823-0.546-4.869-2.943c-1.201-2.75-1.064-4.711,1.517-6.356c0.5-0.318,0.845-0.905,1.363-1.164
	c5.652-2.817,4.945-8.067,4.902-12.995c-0.006-0.776-0.791-1.66-1.417-2.294c-1.432-1.447-2.991-2.769-4.494-4.146
	c-3.279-3.006-3.5-4.76-0.887-8.427c0.413-0.579,1.251-1.058,1.96-1.176c1.043-0.174,2.222-0.219,3.214,0.091
	c6.193,1.935,10.13-1.526,13.745-5.675c0.548-0.629,0.839-1.682,0.849-2.542c0.022-2.032,0.02-4.109-0.365-6.093
	c-0.724-3.734,0.958-5.707,4.395-6.221c1.283-0.191,2.802,0.324,4.025,0.91c0.908,0.435,1.721,1.39,2.218,2.307
	c2.977,5.493,8.143,4.936,13.114,4.784c0.805-0.025,1.709-0.721,2.352-1.333c1.473-1.404,2.816-2.946,4.208-4.435
	c2.945-3.149,5.919-3.696,8.73-0.632C201.567,20.424,201.208,23.354,201.571,25.434z M199.403,57.215
	c0.015-9.845-7.658-17.63-17.456-17.709c-9.837-0.081-17.919,7.997-17.821,17.81c0.098,9.727,8.012,17.539,17.743,17.512
	C191.666,74.8,199.388,67.043,199.403,57.215z"/>
<path fill-rule="evenodd" clip-rule="evenodd" fill="#FFFFFF" fill-opacity="0.25" d="M110.631,229.906
	c3.541-4.841,3.541-4.841,8.281-2.592c3.535,1.679,8.353-1.559,8.287-5.512c-0.039-2.325-1.264-5.019,2.549-6.002
	c2.258-0.582,3.783-0.439,4.598,1.752c1.668,4.485,5.288,3.965,8.583,3.039c1.307-0.368,2.312-2.422,3.089-3.9
	c0.926-1.759,1.702-2.873,4.075-2.272c2.209,0.56,4.075,1.099,3.581,3.801c-0.865,4.733,2.619,5.867,5.814,7.103
	c0.762,0.294,2.043-0.225,2.873-0.724c4.849-2.915,4.828-2.951,8.771,1.369c-0.34,0.744-0.568,1.715-1.136,2.41
	c-2.922,3.571-1.06,6.577,1.433,9.033c0.985,0.972,3.275,1.082,4.872,0.863c2.53-0.346,3.558,0.485,4.392,2.841
	c0.836,2.36,0.11,3.418-1.789,4.595c-3.491,2.163-4.674,5.044-3.12,8.611c0.591,1.356,2.552,2.365,4.106,2.996
	c2.322,0.941,2.454,2.37,2.082,4.515c-0.377,2.172-1.365,3.297-3.529,3.021c-4.163-0.531-6.609,1.872-6.944,5.356
	c-0.235,2.453,1.518,5.097,2.613,8.339c-0.718,0.852-1.994,2.366-3.321,3.94c-1.071-0.484-2.062-0.709-2.764-1.286
	c-3.45-2.836-6.378-1.134-8.749,1.35c-0.982,1.028-1.173,3.231-1.02,4.833c0.251,2.614-0.616,3.744-3.092,4.645
	c-2.583,0.938-3.378-0.408-4.483-2.084c-3.324-5.036-8.729-4.717-11.307,0.744c-1.013,2.146-2.086,3.084-4.641,2.578
	c-2.583-0.512-3.35-1.793-3.168-4.186c0.191-2.513-0.341-4.373-3.094-5.682c-2.74-1.302-4.807-1.532-7.053,0.577
	c-1.635,1.535-3.109,1.968-5.227,0.168c-2.217-1.885-1.814-3.346-0.708-5.479c2.651-5.11-0.406-9.65-6.195-9.196
	c-2.426,0.189-3.839-0.173-4.766-2.851c-0.941-2.719,0.36-3.63,2.164-4.818c4.909-3.234,4.57-8.614-0.74-11.134
	c-2.152-1.021-3.363-1.896-2.727-4.792c0.609-2.775,2.039-3.166,4.247-3.036c2.619,0.155,4.32-0.647,5.61-3.284
	c1.286-2.632,1.41-4.613-0.531-6.778C111.841,231.986,111.351,231,110.631,229.906z M142.371,277.627
	c13.261,0.11,23.907-10.3,24.049-23.517c0.142-13.142-10.444-23.962-23.559-24.082c-13.111-0.119-23.945,10.477-24.113,23.583
	C118.581,266.693,129.227,277.517,142.371,277.627z"/>
<path fill-rule="evenodd" clip-rule="evenodd" fill="#FFFFFF" fill-opacity="0.25" d="M289.791,145.32
	c-0.838,1.916-1.759,3.992-2.655,6.079c-1.522,3.542,0.979,9.114,4.649,10.367c1.248,0.426,2.479,0.936,3.759,1.227
	c2.087,0.474,3.225,1.321,3.268,3.817c0.042,2.506-0.839,3.561-3.096,4.378c-3.363,1.218-6.665,2.168-7.997,6.646
	c-0.949,3.19,0.016,5.219,1.164,7.635c1.027,2.161,2.806,3.916,0.202,6.621c-2.617,2.718-4.563,0.949-6.658,0.008
	c-2.821-1.268-5.219-1.855-8.405-0.335c-2.875,1.372-4.085,3.238-4.934,5.96c-0.769,2.462-0.855,5.316-4.937,5.329
	c-4.063,0.013-3.601-3.187-4.698-5.235c-1.103-2.058-1.765-3.859-4.347-5.133c-4.219-2.082-7.33-0.525-10.599,1.376
	c-2.035,1.183-3.414,1.234-5.31-0.499c-2.032-1.857-1.508-3.362-0.564-5.309c1.604-3.306,2.852-6.245,0.727-10.33
	c-1.928-3.705-5.072-3.625-7.873-4.653c-2.186-0.802-2.942-1.793-3.004-4.068c-0.064-2.369,0.869-3.395,2.994-4.107
	c3.438-1.154,6.48-2.272,8.057-6.566c1.493-4.068-0.63-6.43-2.02-9.229c-1.124-2.264-0.686-3.602,0.949-5.294
	c1.604-1.659,2.957-1.272,4.798-0.619c2.965,1.053,5.404,3.067,9.38,1.446c4.306-1.755,5.137-4.938,6.175-8.378
	c0.653-2.167,1.64-3.116,3.997-3.151c2.262-0.035,3.518,0.552,4.171,2.835c1.098,3.834,2.692,6.892,7.292,8.238
	c4.08,1.195,6.239-1.521,9.207-2.573C285.686,141.021,289.625,142.936,289.791,145.32z M263.968,153.465
	c-7.877-0.014-14.231,6.21-14.304,14.011c-0.074,7.959,6.369,14.395,14.354,14.337c7.811-0.057,14.181-6.453,14.15-14.211
	C278.139,159.781,271.809,153.479,263.968,153.465z"/>
<path fill-rule="evenodd" clip-rule="evenodd" fill="#FFFFFF" fill-opacity="0.25" d="M96.72,257.743
	c-2.574,0.861-5.68-0.955-7.82,2.731c-2.128,3.666,0.627,5.471,1.751,8.75c-1.057,0.792-2.381,1.783-3.956,2.964
	c-0.605-0.313-1.556-0.766-2.47-1.281c-4.08-2.303-8.124,0.016-8.099,4.739c0.01,1.921-0.045,3.367-2.453,3.961
	c-2.297,0.566-3.182-0.387-4.169-2.152c-2.402-4.292-6.998-4.209-9.523,0.162c-0.944,1.634-1.839,2.624-3.931,1.991
	c-1.693-0.512-2.559-1.162-2.599-3.166c-0.122-6.052-3.716-7.992-8.977-5.035c-0.52,0.292-1.05,0.565-1.541,0.829
	c-4.266-2.785-4.266-2.785-2.054-6.869c1.742-3.219-0.744-7.287-4.488-7.42c-1.775-0.062-3.794,0.706-4.499-2.198
	c-0.521-2.15-0.191-3.201,1.76-4.286c4.561-2.538,4.516-7.109-0.063-9.735c-1.715-0.982-2.377-1.865-1.777-3.954
	c0.591-2.061,1.636-2.524,3.587-2.537c5.3-0.035,7.589-3.897,4.809-8.395c-2.142-3.468,0.745-4.264,2.461-5.964
	c1.028,0.563,1.971,1.071,2.906,1.594c3.682,2.058,7.85-0.282,7.928-4.466c0.035-1.885-0.337-3.673,2.414-4.389
	c2.626-0.685,3.35,0.73,4.347,2.455c2.08,3.6,6.967,3.606,9.037,0.014c0.996-1.728,1.715-3.139,4.352-2.465
	c2.725,0.696,2.45,2.399,2.458,4.321c0.019,4.038,4.078,6.581,7.507,4.742c3.791-2.034,3.791-2.034,6.875,1.914
	c-0.595,1.074-1.23,2.207-1.851,3.348c-1.635,3.008,0.843,7.545,4.28,7.237c3.958-0.354,5.122,1.487,5.114,5.234
	c-1.048,0.626-2.283,1.32-3.473,2.084c-2.709,1.738-2.771,6.918,0.174,8.23C98.533,252.425,98.604,254.675,96.72,257.743z
	 M64.657,266.813c11.35,0.046,20.373-8.938,20.339-20.254c-0.033-11.139-8.994-20.142-20.093-20.188
	c-11.238-0.047-20.426,9.096-20.4,20.301C44.528,257.762,53.541,266.768,64.657,266.813z"/>
<path fill-rule="evenodd" clip-rule="evenodd" fill="#FFFFFF" fill-opacity="0.25" d="M171.058,173.753
	c1.49-3.221,3.174-4.666,6.73-2.654c3.218,1.82,7.206-1.417,6.908-5.199c-0.139-1.77-1.222-3.709,1.653-4.669
	c2.033-0.678,3.162-0.572,4.47,1.292c3.048,4.344,7.467,3.821,9.644-1.145c0.858-1.958,2.036-2.727,3.827-1.955
	c1.075,0.463,2.444,1.537,2.639,2.539c1.21,6.221,4.543,7.688,9.731,4.054c0.484-0.339,1.003-0.628,1.688-1.054
	c1.229,0.972,2.435,1.924,3.797,3.001c-0.323,0.927-0.574,1.815-0.936,2.654c-2.099,4.861,0.5,8.629,5.659,7.963
	c1.923-0.248,3.042-0.059,3.889,1.953c0.908,2.158,0.171,3.17-1.512,4.368c-4.153,2.957-3.678,7.46,0.977,9.5
	c1.844,0.809,2.913,1.516,2.417,3.943c-0.443,2.163-1.454,2.628-3.355,2.8c-5.029,0.455-6.984,4.649-4.022,8.635
	c1.195,1.607,1.728,2.753,0.229,4.655c-1.559,1.979-2.823,1.439-4.581,0.647c-4.522-2.037-8.241,0.815-7.536,5.817
	c0.274,1.942-0.017,3.092-2.035,3.861c-1.891,0.722-2.944,0.47-4.166-1.229c-3.307-4.593-7.501-4.135-9.845,0.985
	c-0.711,1.554-1.286,2.521-3.4,2.196c-2.232-0.344-2.988-1.298-3.22-3.41c-0.575-5.227-4.597-6.961-8.893-3.795
	c-1.637,1.206-2.728,1.262-4.365-0.019c-1.71-1.339-1.627-2.469-0.813-4.246c2.191-4.783-0.532-8.541-5.654-7.843
	c-1.928,0.263-3.106,0.005-3.862-2.042c-0.697-1.891-0.448-2.965,1.234-4.185c4.455-3.23,3.963-7.522-1.122-9.825
	c-1.74-0.789-2.653-1.766-1.892-3.509c0.481-1.104,1.381-2.581,2.358-2.823c6.788-1.682,7.974-4.515,4-10.192
	C171.495,174.534,171.333,174.216,171.058,173.753z M178.655,193.085c0.113,11.086,9.21,20.161,20.219,20.169
	c11.163,0.008,20.455-9.314,20.357-20.42c-0.097-11.069-9.2-20.121-20.245-20.131C187.746,172.692,178.542,181.919,178.655,193.085z
	"/>
<path fill-rule="evenodd" clip-rule="evenodd" fill="#FFFFFF" fill-opacity="0.25" d="M187.33,115.462
	c2.157-0.532,4.424-0.804,6.446-1.657c3.057-1.289,2.931-4.199,3.129-6.998c0.081-1.139,1.027-2.941,1.866-3.123
	c1.128-0.245,2.91,0.438,3.742,1.34c1.865,2.023,3.298,4.757,6.598,3.822c2.011-0.569,3.77-1.977,5.716-2.84
	c1.146-0.508,2.813-1.313,3.572-0.858c0.977,0.583,1.841,2.327,1.777,3.518c-0.381,7.064,1.267,8.969,8.425,9.648
	c1.105,0.104,2.656,1.128,2.994,2.083c0.322,0.912-0.337,2.659-1.148,3.388c-2.137,1.921-4.91,3.452-3.88,6.914
	c0.565,1.902,1.608,3.759,2.819,5.342c1.085,1.418,2.44,2.723,0.818,4.26c-0.894,0.846-2.564,1.392-3.803,1.266
	c-6.059-0.613-8.542,1.461-8.998,7.469c-0.104,1.363-0.938,3.07-2,3.877c-2.131,1.618-3.087-0.619-4.161-1.934
	c-3.769-4.613-6.995-4.757-11.567-0.763c-0.942,0.824-2.597,1.356-3.826,1.211c-2.195-0.261-2.041-2.059-1.853-3.878
	c0.675-6.538-1.352-8.869-7.91-9.12c-1.866-0.071-3.56-0.333-3.557-2.499c0.002-1.147,0.628-2.64,1.487-3.382
	c5.106-4.415,5.283-7.085,0.823-12.37c-0.743-0.88-1.225-2.56-0.91-3.589c0.304-0.994,1.794-1.623,2.764-2.413
	C186.905,114.605,187.117,115.034,187.33,115.462z M207.331,133.921c2.948-0.082,5.453-2.63,5.457-5.553
	c0.003-3.216-2.825-5.896-6.038-5.72c-2.985,0.164-5.36,2.725-5.27,5.685C201.574,131.395,204.308,134.005,207.331,133.921z"/>
<path fill-rule="evenodd" clip-rule="evenodd" fill="#FFFFFF" fill-opacity="0.25" d="M499.87,202.603
	c0.031,14.767-11.663,26.43-26.506,26.437c-14.856,0.006-26.503-11.612-26.485-26.422c0.018-14.571,12.068-26.502,26.652-26.388
	C487.998,176.342,499.84,188.2,499.87,202.603z M473.496,182.249c-11.49-0.053-20.181,8.61-20.244,20.182
	c-0.062,11.429,8.762,20.519,19.977,20.583c11.173,0.063,20.289-9.041,20.344-20.315
	C493.626,191.218,484.875,182.303,473.496,182.249z"/>
<path fill-rule="evenodd" clip-rule="evenodd" fill="#FFFFFF" fill-opacity="0.25" d="M397.834,283.104
	c0.097-6.798,1.308-13.216,4.925-18.96c6.4-10.164,19.24-10.427,25.266-0.076c7.248,12.448,7.207,25.495-0.123,37.894
	c-6.02,10.182-18.65,9.883-25.045-0.137C399.205,296.102,397.958,289.69,397.834,283.104z M427.935,283.026
	c-1.524-5.355-2.329-10.788-4.591-15.525c-3.582-7.502-11.878-7.587-15.685-0.257c-5.3,10.205-5.294,20.842-0.069,31.069
	c3.752,7.346,12.1,7.328,15.725-0.104C425.565,293.596,426.391,288.289,427.935,283.026z"/>
<path fill-rule="evenodd" clip-rule="evenodd" fill="#FFFFFF" fill-opacity="0.25" d="M379.35,213.547
	c1.83,6.42,4.491,9.059,9.249,9.407c4.552,0.336,8.199-2.093,9.665-6.434c1.448-4.288,0.266-8.231-3.775-10.562
	c-4.033-2.325-8.511-3.885-12.521-6.243c-6.529-3.839-8.234-10.979-4.426-16.993c4.67-7.373,16.663-8.719,23.101-2.55
	c1.019,0.976,1.827,2.171,3.032,3.627c-1.735,1.063-3.224,1.975-4.947,3.031c-2.41-3.092-5.336-5.092-9.485-4.525
	c-3.5,0.479-6.551,2.786-7.093,5.716c-0.688,3.721,1.428,5.928,4.426,7.389c2.795,1.362,5.77,2.352,8.59,3.667
	c8.102,3.781,11.455,10.152,9.551,17.938c-1.791,7.318-8.192,12.157-15.899,12.018c-7.795-0.142-13.617-5.317-15.387-14.128
	C375.295,214.479,377.191,214.043,379.35,213.547z"/>
<path fill-rule="evenodd" clip-rule="evenodd" fill="#FFFFFF" fill-opacity="0.25" d="M445.698,269.25c-2.059,0-3.833,0-5.613,0
	c0.557-6.689,4.336-11.009,10.673-12.348c6.954-1.47,13.959,1.312,16.876,6.703c3.207,5.925,1.795,12.077-4.122,17.964
	c6.516,5.919,8.224,12.717,4.903,19.518c-2.938,6.021-10.179,9.271-17.765,7.975c-6.83-1.168-11.291-5.837-12.173-12.975
	c3.082-0.659,5.612-1.209,7.221,2.91c1.525,3.906,6.716,5.559,11.131,4.419c4.2-1.084,7.103-5.095,7.04-9.729
	c-0.065-4.758-2.594-8.14-6.988-9.264c-1.037-0.265-2.114-0.375-3.396-0.594c0-1.462,0-2.969,0-3.92
	c2.897-1.521,5.813-2.596,8.099-4.448c1.121-0.909,1.441-3.254,1.479-4.963c0.092-4.151-2.786-7.438-6.705-8.166
	C451.35,261.404,448.358,263.324,445.698,269.25z"/>
<path fill-rule="evenodd" clip-rule="evenodd" fill="#FFFFFF" fill-opacity="0.25" d="M349.179,207.546c0,2.988,0,6.437,0,9.884
	c0,3.335,0,6.67,0,10.221c-2.07,0-3.817,0-5.886,0c0-16.551,0-33.15,0-50.161c6.682-0.159,13.479-0.776,19.983,1.972
	c5.502,2.324,7.321,6.866,7.299,12.478c-0.024,5.946-2.277,10.762-8.008,12.816C358.48,206.22,353.999,206.587,349.179,207.546z
	 M349.18,201.122c5.494-0.207,10.776,0.398,14.134-4.447c2.057-2.97,2.153-6.542-0.019-9.474c-3.471-4.685-8.704-4.07-13.84-4.144
	c-0.118,1.044-0.262,1.737-0.265,2.431C349.171,190.499,349.18,195.512,349.18,201.122z"/>
<path fill-rule="evenodd" clip-rule="evenodd" fill="#FFFFFF" fill-opacity="0.25" d="M288.992,302.034
	c-0.467,7.641-2.047,14.962-6.229,21.524c-7.42,11.645-23.746,15.012-33.894,6.846c-5.917-4.762-8.384-11.409-8.391-18.747
	c-0.009-9.468,3.165-17.908,10.062-24.631c6.515-6.35,14.375-8.417,23.209-6.516C283.492,282.609,289.283,290.899,288.992,302.034z
	 M285.599,301.819c-0.294-1.846-0.479-4.866-1.284-7.711c-2.488-8.801-14.286-13.45-23.854-9.316
	c-9.842,4.253-14.495,12.429-16.048,22.61c-1.168,7.659,0.511,14.651,6.458,19.911c6.878,6.082,17.658,5.464,25.184-1.414
	C282.72,319.808,284.863,311.651,285.599,301.819z"/>
<path fill-rule="evenodd" clip-rule="evenodd" fill="#FFFFFF" fill-opacity="0.25" d="M429.478,227.674c-2.115,0-3.967,0-6.205,0
	c0-4.599-0.293-9.026,0.071-13.4c0.489-5.885-1.092-10.9-4.277-15.841c-4.26-6.607-7.928-13.596-11.894-20.498
	c6.215-1.396,6.561-1.243,9.512,3.895c3.157,5.496,6.322,10.987,9.793,17.016c3.374-5.87,6.899-11.151,9.527-16.845
	c2.103-4.556,5.159-5.332,9.898-4.272c-1.891,3.291-3.714,6.468-5.539,9.643c-3.463,6.021-8.203,11.682-10.027,18.164
	c-1.785,6.342-0.597,13.52-0.721,20.33C429.609,226.337,429.546,226.808,429.478,227.674z"/>
<path fill-rule="evenodd" clip-rule="evenodd" fill="#FFFFFF" fill-opacity="0.25" d="M380.314,258.068c0,16.671,0,33.182,0,49.95
	c-1.898,0-3.634,0-5.806,0c0-14.655,0-29.335,0-44.406c-2.951-0.134-5.511-0.251-8.12-0.369
	C368.224,257.139,370.162,256.421,380.314,258.068z"/>
<path fill-rule="evenodd" clip-rule="evenodd" fill="#FFFFFF" fill-opacity="0.25" d="M482.265,263.515
	c2.955-6.39,5.455-7.245,14.234-5.394c0,16.563,0,33.147,0,49.945c-1.82,0-3.451,0-5.761,0c0-7.267,0-14.616,0-21.967
	c0-7.399,0-14.8,0-22.585C487.892,263.515,485.306,263.515,482.265,263.515z"/>
<path fill-rule="evenodd" clip-rule="evenodd" fill="#FFFFFF" fill-opacity="0.25" d="M136.734,141.7
	c-0.016,21.302-16.825,37.947-38.275,37.899c-20.974-0.045-37.919-17.059-37.919-38.07c0.001-21.082,17.202-38.254,38.269-38.205
	C119.98,103.375,136.75,120.343,136.734,141.7z M98.727,118.997c-12.386,0.002-22.497,10.019-22.574,22.362
	c-0.078,12.529,10.043,22.723,22.575,22.738c12.354,0.015,22.488-10.024,22.592-22.378
	C121.424,129.231,111.246,118.995,98.727,118.997z"/>
<path fill-rule="evenodd" clip-rule="evenodd" fill="#FFFFFF" fill-opacity="0.25" d="M289.864,101.89
	c-16.483,0.076-29.9-13.101-30.035-29.5c-0.137-16.521,13.337-30.132,29.839-30.143c16.385-0.011,29.777,13.364,29.804,29.766
	C319.498,88.52,306.324,101.814,289.864,101.89z M289.744,89.667c9.773-0.021,17.533-7.832,17.501-17.615
	c-0.031-9.713-7.971-17.621-17.638-17.568c-9.66,0.052-17.593,8.051-17.559,17.706C272.083,81.889,279.979,89.687,289.744,89.667z"
	/>
<path fill-rule="evenodd" clip-rule="evenodd" fill="#FFFFFF" fill-opacity="0.25" d="M143.137,270.089
	c-8.996,0.021-16.522-7.519-16.478-16.511c0.043-8.887,7.353-16.247,16.245-16.356c9.053-0.111,16.574,7.261,16.633,16.304
	C159.596,262.563,152.166,270.067,143.137,270.089z"/>
<path fill-rule="evenodd" clip-rule="evenodd" fill="#FFFFFF" fill-opacity="0.25" d="M274.67,167.758
	c0.002,5.769-4.733,10.457-10.566,10.46c-5.846,0.003-10.49-4.644-10.478-10.485c0.013-5.833,4.689-10.505,10.503-10.493
	C269.903,157.252,274.669,162.008,274.67,167.758z"/>
<path fill-rule="evenodd" clip-rule="evenodd" fill="#FFFFFF" fill-opacity="0.25" d="M54.335,246.592
	c0.014-5.878,4.625-10.468,10.494-10.447c5.824,0.021,10.515,4.727,10.489,10.521c-0.026,5.743-4.836,10.531-10.563,10.514
	C58.986,257.162,54.321,252.422,54.335,246.592z"/>
<path fill-rule="evenodd" clip-rule="evenodd" fill="#FFFFFF" fill-opacity="0.25" d="M215.268,192.859
	c0.043,9.207-7.146,16.441-16.338,16.439c-9.182-0.002-16.392-7.242-16.36-16.432c0.03-8.988,7.192-16.196,16.172-16.277
	C207.92,176.508,215.225,183.698,215.268,192.859z"/>
<path fill-rule="evenodd" clip-rule="evenodd" fill="#FFFFFF" fill-opacity="0.25" d="M98.58,157.424
	c-9.111-0.185-16.225-7.679-15.982-16.837c0.239-9.065,7.778-16.095,16.991-15.843c8.893,0.243,16.061,7.792,15.83,16.672
	C115.181,150.574,107.779,157.611,98.58,157.424z"/>
</svg>
